<?xml version="1.0" standalone="no"?>
<!DOCTYPE svg PUBLIC "-//W3C//DTD SVG 20010904//EN"
 "http://www.w3.org/TR/2001/REC-SVG-20010904/DTD/svg10.dtd">
<svg version="1.0" xmlns="http://www.w3.org/2000/svg"
 width="64.000000pt" height="64.000000pt" viewBox="0 0 64.000000 64.000000"
 preserveAspectRatio="xMidYMid meet">
<metadata>
Created by potrace 1.15, written by Peter Selinger 2001-2017
</metadata>
<g transform="translate(0.000000,64.000000) scale(0.100000,-0.100000)"
fill="#000000" stroke="none">
<path d="M0 499 l0 -140 24 28 c22 25 23 30 9 45 -25 28 -9 50 36 47 30 -2 46
3 70 24 32 27 34 27 181 27 147 0 149 0 181 -27 24 -21 40 -26 70 -24 45 3 61
-19 36 -47 -14 -15 -13 -20 9 -45 l24 -28 0 140 0 141 -320 0 -320 0 0 -141z"/>
<path d="M160 455 l-34 -35 194 0 194 0 -34 35 -34 35 -126 0 -126 0 -34 -35z"/>
<path d="M0 97 l0 -97 320 0 320 0 0 97 c0 96 -6 113 -19 51 -6 -32 -9 -33
-58 -36 -44 -3 -52 0 -58 18 -6 19 -14 20 -185 20 -171 0 -179 -1 -185 -20 -6
-18 -14 -21 -58 -18 -49 3 -52 4 -58 36 -13 62 -19 45 -19 -51z"/>
</g>
</svg>
